<svg id="Capa_1" enable-background="new 0 0 497 497" height="512" viewBox="0 0 497 497" width="512" xmlns="http://www.w3.org/2000/svg"><g><path d="m489.5 120h-22.5l-120 162 120 162h22.5c4.142 0 7.5-3.358 7.5-7.5v-28.5l-10-18 10-18v-36l-10-18 10-18v-36l-10-18 10-18v-36l-10-18 10-18v-28.5c0-4.142-3.358-7.5-7.5-7.5z" fill="#db2116"/><path d="m338.5 120h128.5v324h-128.5z" fill="#ff3a2f"/><path d="m497 372h-30l-20 18 20 18h30z" fill="#ebebeb"/><path d="m338.5 372h128.5v36h-128.5z" fill="#fff"/><path d="m497 300h-30l-20 18 20 18h30z" fill="#ebebeb"/><path d="m338.5 300h128.5v36h-128.5z" fill="#fff"/><path d="m497 228h-30l-20 18 20 18h30z" fill="#ebebeb"/><path d="m338.5 228h128.5v36h-128.5z" fill="#fff"/><path d="m497 156h-30l-20 18 20 18h30z" fill="#ebebeb"/><path d="m338.5 156h128.5v36h-128.5z" fill="#fff"/><path d="m368.5 126c0-16.569-13.431-30-30-30l-20 18.5v216l20 17.5 30 30v-36c0-8.239-3.322-23.12-8.699-36h8.699v-36c0-8.239-3.322-23.12-8.699-36h8.699v-36c0-8.239-3.322-23.12-8.699-36h8.699z" fill="#ebebeb"/><path d="m270 66-210 174v36l20 18-20 18v36h278.5v-252z" fill="#fff"/><path d="m338.5 60-20 18.5 20 17.5c16.569 0 30 13.431 30 30v-36c0-16.569-13.431-30-30-30z" fill="#db2116"/><path d="m270 60-30 36h98.5v-36z" fill="#ff3a2f"/><path d="m338.5 132-20 18.5 20 17.5c16.569 0 30 13.431 30 30v-36c0-16.569-13.431-30-30-30z" fill="#db2116"/><path d="m240 132h98.5v36h-98.5z" fill="#ff3a2f"/><path d="m338.5 348-20 18.5 20 47.5h30v-36c0-16.569-13.431-30-30-30z" fill="#db2116"/><path d="m60 348v36h248.5l30 20v-56z" fill="#ff3a2f"/><path d="m338.5 384h-30v30c0 16.569 13.431 30 30 30s30-13.431 30-30-13.431-30-30-30z" fill="#a41910"/><path d="m338.5 204-20 18.5 20 17.5c16.569 0 30 13.431 30 30v-36c0-16.569-13.431-30-30-30z" fill="#db2116"/><path d="m240 204 30 36h68.5v-36z" fill="#ff3a2f"/><path d="m338.5 276-20 18.5 20 17.5c16.569 0 30 13.431 30 30v-36c0-16.569-13.431-30-30-30z" fill="#db2116"/><path d="m60 276h278.5v36h-278.5z" fill="#ff3a2f"/><path d="m60 60h210v180h-210z" fill="#4271db"/><g fill="#fff"><circle cx="153.75" cy="90" r="7.5"/><circle cx="183.75" cy="90" r="7.5"/><circle cx="213.75" cy="90" r="7.5"/><circle cx="243.75" cy="90" r="7.5"/><circle cx="123.75" cy="90" r="7.5"/><circle cx="93.75" cy="90" r="7.5"/><circle cx="153.75" cy="150" r="7.5"/><circle cx="183.75" cy="150" r="7.5"/><circle cx="213.75" cy="150" r="7.5"/><circle cx="243.75" cy="150" r="7.5"/><circle cx="123.75" cy="150" r="7.5"/><circle cx="93.75" cy="150" r="7.5"/><circle cx="153.75" cy="210" r="7.5"/><circle cx="183.75" cy="210" r="7.5"/><circle cx="213.75" cy="210" r="7.5"/><circle cx="243.75" cy="210" r="7.5"/><circle cx="123.75" cy="210" r="7.5"/><circle cx="93.75" cy="210" r="7.5"/><circle cx="168.75" cy="120" r="7.5"/><circle cx="198.75" cy="120" r="7.5"/><circle cx="228.75" cy="120" r="7.5"/><circle cx="138.75" cy="120" r="7.5"/><circle cx="108.75" cy="120" r="7.5"/><circle cx="168.75" cy="180" r="7.5"/><circle cx="198.75" cy="180" r="7.5"/><circle cx="228.75" cy="180" r="7.5"/><circle cx="138.75" cy="180" r="7.5"/><circle cx="108.75" cy="180" r="7.5"/></g><path d="m30 421.5h-7.5v-15h7.5c12.407 0 22.5-10.093 22.5-22.5v-324c0-12.407-10.093-22.5-22.5-22.5h-7.5v-15h7.5c20.678 0 37.5 16.822 37.5 37.5v324c0 20.678-16.822 37.5-37.5 37.5z" fill="#ebebeb"/><path d="m14.275.017c-8.068.38-14.275 7.33-14.275 15.407v477.076c0 2.485 2.015 4.5 4.5 4.5h21c2.485 0 4.5-2.015 4.5-4.5v-477.5c0-8.525-7.111-15.389-15.725-14.983z" fill="#ccc"/></g></svg>